<svg xmlns="http://www.w3.org/2000/svg" viewBox="90 40 660 600" role="img" aria-label="ClimaX">
  <defs>
    <linearGradient id="sol" x1="0" y1="0" x2="0.6" y2="1">
      <stop offset="0" stop-color="#FDC012"/>
      <stop offset="1" stop-color="#F5A623"/>
    </linearGradient>
  </defs>

  <!-- Rayos del sol -->
  <g stroke="#7B2214" stroke-width="13" stroke-linecap="round">
    <line x1="480" y1="60" x2="480" y2="118"/>
    <line x1="433" y1="76" x2="445" y2="122"/>
    <line x1="527" y1="76" x2="515" y2="122"/>
    <line x1="390" y1="88" x2="413" y2="133"/>
    <line x1="570" y1="88" x2="547" y2="133"/>
    <line x1="349" y1="112" x2="383" y2="150"/>
    <line x1="611" y1="112" x2="577" y2="150"/>
    <line x1="315" y1="143" x2="357" y2="172"/>
    <line x1="645" y1="143" x2="603" y2="172"/>
    <line x1="290" y1="178" x2="339" y2="198"/>
    <line x1="670" y1="178" x2="621" y2="198"/>
    <line x1="277" y1="215" x2="328" y2="223"/>
    <line x1="683" y1="215" x2="632" y2="223"/>
  </g>

  <!-- Sol (semicírculo con brillo interior) -->
  <path d="M 375 253 A 105 105 0 0 1 585 253 Z" fill="url(#sol)" stroke="#7B2214" stroke-width="13" stroke-linejoin="round"/>
  <path d="M 410 245 A 78 78 0 0 1 442 183" fill="none" stroke="#FFDD55" stroke-width="10" stroke-linecap="round"/>
  <line x1="404" y1="228" x2="404" y2="240" stroke="#FFDD55" stroke-width="9" stroke-linecap="round"/>

  <!-- Horizonte -->
  <line x1="262" y1="253" x2="698" y2="253" stroke="#7B2214" stroke-width="13" stroke-linecap="round"/>

  <!-- Ondas de aire -->
  <g fill="#3A6FC0">
    <path d="M 300 300 C 190 340 120 440 132 570 C 128 470 205 375 305 322 Z"/>
    <path d="M 372 388 C 290 440 255 520 285 615 C 268 530 315 452 388 410 Z"/>
    <path d="M 700 415 C 590 520 430 560 300 520 C 425 585 610 545 706 428 Z"/>
  </g>
  <g fill="#57B1E8">
    <path d="M 332 338 C 235 400 190 500 215 610 C 205 505 260 415 345 362 Z"/>
    <path d="M 640 500 C 545 570 430 585 340 555 C 435 605 565 590 648 512 Z"/>
  </g>

  <!-- Marca -->
  <text x="480" y="402" text-anchor="middle" font-family="Questrial, 'Trebuchet MS', 'Segoe UI', Arial, sans-serif" font-weight="700" font-size="140" letter-spacing="1" fill="#7CC4EF">ClimaX</text>
</svg>
